<svg width="18" height="17" viewBox="0 0 18 17" fill="none" xmlns="http://www.w3.org/2000/svg">
<path d="M17 6H11V1C11 0.734784 10.8946 0.48043 10.7071 0.292893C10.5196 0.105357 9.26522 0 9 0C8.73478 0 7.48043 0.105357 7.29289 0.292893C7.10536 0.48043 7 0.734784 7 1V6H1C0.734784 6 0.48043 6.10536 0.292893 6.29289C0.105357 6.48043 0 7.73478 0 8C0 8.26522 0.105357 9.51957 0.292893 9.70711C0.48043 9.89464 0.734784 10 1 10H7V16C7 16.2652 7.10536 16.5196 7.29289 16.7071C7.48043 16.8946 8.73478 17 9 17C9.26522 17 10.5196 16.8946 10.7071 16.7071C10.8946 16.5196 11 16.2652 11 16V10H17C17.2652 10 17.5196 9.89464 17.7071 9.70711C17.8946 9.51957 18 8.26522 18 8C18 7.73478 17.8946 6.48043 17.7071 6.29289C17.5196 6.10536 17.2652 6 17 6Z" fill="white"/>
</svg>
